<svg width="220" height="35" viewBox="0 0 220 35" fill="none" xmlns="http://www.w3.org/2000/svg">
<path d="M23.6098 15.0043H0.0292969V19.2086H23.6098V15.0043Z" fill="#13A58E"/>
<path d="M4.2254 11.5086C4.2254 13.839 4.2254 15.0043 4.2254 15.0043H0.0292079C0.0292079 15.0043 0 13.4548 0 11.5086C0.0973595 7.61604 1.68432 4.46045 4.92639 2.24965C8.95708 -0.499683 13.2896 -0.73588 17.5929 1.57885C23.5805 4.6683 23.5805 10.8 23.5805 10.8H19.2577C19.2577 10.8 19.1506 7.82389 16.2688 5.69812C14.8765 4.67775 13.2798 4.20536 11.5371 4.2526C8.4216 4.33763 4.60511 6.54843 4.21567 11.5086" fill="#13A58E"/>
<path d="M23.6098 21.6935H0.0292969V27.6173H23.6098V21.6935Z" fill="#13A58E"/>
<path d="M53.6354 5.06537V26.9561H48.8551L48.3293 25.0004C46.3919 26.6443 43.8605 27.608 41.0176 27.608C34.2317 27.608 29.1787 22.6384 29.1787 16.006C29.1787 9.3736 34.2219 4.47015 41.0176 4.47015C43.9189 4.47015 46.4795 5.46218 48.4267 7.1439L49.079 5.05592H53.6354V5.06537ZM47.6576 16.006C47.6576 12.567 45.0581 10.0066 41.5142 10.0066C37.9703 10.0066 35.361 12.5764 35.361 16.006C35.361 19.4356 37.9703 22.0054 41.5142 22.0054C45.0581 22.0054 47.6576 19.445 47.6576 16.006Z" fill="#13A58E"/>
<path d="M71.4425 4.47015C78.2382 4.47015 83.2619 9.40194 83.2619 16.0343C83.2619 22.6667 78.2382 27.6363 71.4425 27.6363C69.1058 27.6363 66.9834 26.9655 65.2309 25.794V34.8734H59.1362V5.09371H63.1669L64.2087 7.08721C66.1266 5.44328 68.6288 4.4796 71.4425 4.4796V4.47015ZM77.0893 16.0438C77.0893 12.6048 74.4898 10.0444 70.9459 10.0444C67.4021 10.0444 64.7928 12.6142 64.7928 16.0438C64.7928 19.4734 67.4021 22.0432 70.9459 22.0432C74.4898 22.0432 77.0893 19.4828 77.0893 16.0438Z" fill="#13A58E"/>
<path d="M99.5792 4.47015C106.375 4.47015 111.399 9.40194 111.399 16.0343C111.399 22.6667 106.375 27.6363 99.5792 27.6363C97.2426 27.6363 95.1201 26.9655 93.3677 25.794V34.8734H87.2729V5.09371H91.3036L92.3454 7.08721C94.2634 5.44328 96.7655 4.4796 99.5792 4.4796V4.47015ZM105.226 16.0438C105.226 12.6048 102.627 10.0444 99.0827 10.0444C95.5388 10.0444 92.9295 12.6142 92.9295 16.0438C92.9295 19.4734 95.5388 22.0432 99.0827 22.0432C102.627 22.0432 105.226 19.4828 105.226 16.0438Z" fill="#13A58E"/>
<path d="M129.586 22.3358V27.6077H125.253C120.288 27.6077 117.24 24.6505 117.24 19.7849V10.4693H113.161V9.19381L122.06 0.0010376H123.228V5.717H129.459V10.4787H123.335V19.0102C123.335 21.1265 124.591 22.3452 126.811 22.3452H129.586V22.3358Z" fill="#04122B"/>
<path d="M147.636 5.59399V11.1777H144.988C141.551 11.1777 140.188 12.6516 140.188 16.2323V27.6075H134.083V5.71682H137.997L139.078 8.40001C140.684 6.4632 142.719 5.59399 145.621 5.59399H147.626H147.636Z" fill="#04122B"/>
<path d="M149.097 16.6956C149.097 10.4316 154.013 5.78326 160.605 5.78326C167.196 5.78326 172.112 10.4411 172.112 16.6956C172.112 22.95 167.167 27.6078 160.605 27.6078C154.043 27.6078 149.097 22.9217 149.097 16.6956ZM166.281 16.6956C166.281 13.351 163.925 11.0363 160.605 11.0363C157.285 11.0363 154.929 13.351 154.929 16.6956C154.929 20.0401 157.285 22.3548 160.605 22.3548C163.925 22.3548 166.281 20.0401 166.281 16.6956Z" fill="#04122B"/>
<path d="M197.143 5.71729L188.177 27.608H182.549L173.368 5.71729H179.882L185.402 20.3804L190.825 5.71729H197.143Z" fill="#04122B"/>
<path d="M203.715 18.8875C204.455 21.4762 206.461 22.7705 209.722 22.7705C211.825 22.7705 213.412 22.0808 214.493 20.7014L218.923 23.1862C216.82 26.134 213.724 27.6078 209.635 27.6078C206.11 27.6078 203.287 26.5686 201.155 24.5089C199.023 22.4399 197.961 19.8322 197.961 16.6956C197.961 13.5589 199.013 10.9796 201.116 8.90106C203.219 6.82253 205.916 5.78326 209.216 5.78326C212.341 5.78326 214.921 6.83198 216.947 8.9294C218.972 11.0268 219.994 13.6155 219.994 16.705C219.994 17.3947 219.926 18.1222 219.78 18.8969H203.715V18.8875ZM203.628 14.7493H214.493C214.182 13.3416 213.539 12.2928 212.556 11.6032C211.572 10.9135 210.462 10.5733 209.206 10.5733C207.727 10.5733 206.51 10.9418 205.546 11.6693C204.582 12.3968 203.939 13.4266 203.628 14.7493Z" fill="#04122B"/>
</svg>
